PathFileType	4	(X/Y/Z)	2014001\dynamic\2014001_C1_03.trc
DataRate	CameraRate	NumFrames	NumMarkers	Units	OrigDataRate	OrigDataStartFrame	OrigNumFrames
100.000000	100.000000	4	52	mm	100.000000	306	490
Frame#	Time	L_IAS			L_IPS			R_IPS			R_IAS			L_FTC			L_FLE			L_FME			L_FAX			L_TTC			L_FAL			L_TAM			L_FCC			L_FM1			L_FM2			L_FM5			R_FTC			R_FLE			R_FME			R_FAX			R_TTC			R_FAL			R_TAM			R_FCC			R_FM1			R_FM2			R_FM5			CV7			TV10			SXS			SJN			L_SIA			L_SRS			L_SAA			L_SAE			L_HLE			L_HME			L_UOA			L_RSP			L_UHE			L_HM2			L_HM5			R_SIA			R_SRS			R_SAA			R_SAE			R_HLE			R_HME			R_UOA			R_RSP			R_UHE			R_HM2			R_HM5			
		X1	Y1	Z1	X2	Y2	Z2	X3	Y3	Z3	X4	Y4	Z4	X5	Y5	Z5	X6	Y6	Z6	X7	Y7	Z7	X8	Y8	Z8	X9	Y9	Z9	X10	Y10	Z10	X11	Y11	Z11	X12	Y12	Z12	X13	Y13	Z13	X14	Y14	Z14	X15	Y15	Z15	X16	Y16	Z16	X17	Y17	Z17	X18	Y18	Z18	X19	Y19	Z19	X20	Y20	Z20	X21	Y21	Z21	X22	Y22	Z22	X23	Y23	Z23	X24	Y24	Z24	X25	Y25	Z25	X26	Y26	Z26	X27	Y27	Z27	X28	Y28	Z28	X29	Y29	Z29	X30	Y30	Z30	X31	Y31	Z31	X32	Y32	Z32	X33	Y33	Z33	X34	Y34	Z34	X35	Y35	Z35	X36	Y36	Z36	X37	Y37	Z37	X38	Y38	Z38	X39	Y39	Z39	X40	Y40	Z40	X41	Y41	Z41	X42	Y42	Z42	X43	Y43	Z43	X44	Y44	Z44	X45	Y45	Z45	X46	Y46	Z46	X47	Y47	Z47	X48	Y48	Z48	X49	Y49	Z49	X50	Y50	Z50	X51	Y51	Z51	X52	Y52	Z52	

307	3.06	321.300018310547	880.2880859375005	847.9859008789067	229.3472900390626	899.4879760742192	672.3077392578127	141.0624542236329	893.9066772460942	679.2012939453127	78.36518859863284	867.8137207031255	861.9738769531255	378.5466918945314	795.6330566406255	781.9296875000005	369.5510864257814	463.3058776855471	918.6062011718755	255.3707885742189	458.7434997558596	951.1436157226567	374.7525939941407	398.6851806640627	918.4221191406255	336.8489074707032	402.4864807128909	989.4354858398442	353.2017211914064	86.97745513916018	1006.689514160157	269.8228149414064	105.275489807129	1037.845947265625	302.6565856933595	31.93308448791505	988.709838867188	306.5433654785157	104.7663269042969	1155.301391601563	364.3258666992189	110.7569198608399	1148.432739257813	395.157897949219	75.55503845214847	1108.238037109375	25.65412712097169	765.8626098632815	771.5390014648442	94.24395751953128	421.5900878906252	752.2932128906252	215.9948577880861	420.0243225097659	753.646423339844	95.20295715332034	356.8982238769532	723.1751098632815	153.3216094970704	345.1840820312501	778.115844726563	160.5167694091797	67.98728179931643	610.6316528320315	248.9003906250001	83.9143981933594	644.6519165039065	216.5458984375001	31.4299831390381	560.9654541015627	238.7669525146486	22.52792358398438	745.8439941406252	174.4105072021485	36.8436737060547	755.7380981445315	125.4152603149415	24.8829975128174	695.196960449219	185.3450164794922	1369.2587890625	691.9971313476565	181.0682525634766	1133.062866210938	629.851745605469	204.8028411865236	1140.540161132813	859.3338012695317	200.4687957763673	1301.63134765625	815.1207885742192	274.5411987304689	1172.766845703125	614.701599121094	270.8590393066407	1304.578491210938	636.786071777344	385.0010375976565	1296.931030273438	703.6232910156252	374.1638183593751	1308.32080078125	744.4573974609377	440.3575439453127	1022.225646972657	698.8438720703127	361.302215576172	991.5833129882817	690.4141845703127	407.3462829589846	988.994506835938	671.2781982421877	424.7591857910159	799.1544799804692	810.819946289063	478.6699523925784	792.4393920898442	751.9827880859377	438.4226989746096	720.1618652343752	844.7385864257817	479.950622558594	713.6148071289065	751.4783325195315	66.41705322265628	1177.858032226563	634.1304931640627	91.91079711914065	1302.658569335938	657.539245605469	-1.731083035469056	1298.146118164063	747.843200683594	15.27599430084229	1302.920776367188	793.165405273438	-63.73250579833987	998.9854125976567	761.0102539062502	8.608768463134769	981.676879882813	726.9628906250002	-37.45327377319337	974.1593627929692	728.4573364257815	-20.86198997497559	799.0285034179692	869.710327148438	-88.48053741455081	792.3615112304692	822.914184570313	-35.79899978637697	711.9683837890627	906.7241210937505	-88.9616394042969	713.160339355469	818.5076293945317	
308	3.07	321.7834472656251	879.6088867187505	851.0798950195317	230.117401123047	899.007690429688	675.2359008789065	141.8138427734376	893.5514526367192	681.9499511718752	78.70178985595706	867.4368286132817	864.5731811523442	378.9888916015626	794.936401367188	785.1074218750005	369.2847290039064	462.8550415039065	921.8137207031255	255.0898895263673	458.5923461914065	954.2986450195317	374.4263916015626	398.1416015625002	922.0693359375005	336.5204467773439	402.5625610351565	993.0263671875005	352.6778869628907	87.19947814941409	1013.162353515625	269.2749633789064	105.8593826293946	1044.094970703125	302.0512695312501	32.09188842773439	995.5358886718755	305.7701416015626	106.1056747436524	1161.66015625	363.6122436523439	111.809310913086	1154.912109375	394.4023132324221	76.22194671630862	1115.0185546875	25.92685317993165	765.512145996094	774.0023803710942	94.51501464843753	421.3569030761721	753.9185791015627	216.4283294677736	419.7401428222659	755.1216430664065	95.40274047851565	356.7442626953126	724.5239257812502	153.5886688232422	344.8664855957032	779.4743041992192	160.5037994384766	68.25010681152347	610.7908325195315	248.8924255371095	84.02962493896487	644.8397216796877	216.5076599121095	31.79652976989748	561.003112792969	238.8195343017579	22.52078437805176	745.831970214844	174.3916625976563	36.85537719726564	755.765319824219	125.4043579101563	24.87893486022951	695.2124633789065	186.272933959961	1368.753051757813	694.6560058593752	182.0015106201172	1132.534057617188	632.5939941406252	205.4555206298829	1140.106811523438	862.1550292968755	201.2439880371095	1301.161743164063	817.820922851563	275.4556579589845	1172.174438476563	617.5627441406252	271.7970581054689	1304.003540039063	639.5596923828127	385.8871765136721	1296.295654296875	706.5335693359377	375.0004882812501	1307.743408203125	747.3679809570315	441.0794067382815	1021.570617675782	701.9758300781252	362.0216674804689	990.9755249023442	693.4752197265627	408.0882263183596	988.3682250976567	674.3357543945315	425.1319274902346	798.5199584960942	814.095825195313	479.1802673339846	791.7881469726567	755.2832641601565	438.7853088378909	719.5923461914065	848.037719726563	480.4189147949221	712.967224121094	754.8310546875002	67.32349395751956	1177.382202148438	636.760192871094	92.84501647949222	1302.150024414063	660.1527099609377	-0.8926659226417546	1297.700805664063	750.3463134765627	16.06831169128419	1302.490600585938	795.701293945313	-62.88694763183597	998.4712524414067	763.7778930664065	9.463984489440922	981.1574707031255	729.7749633789065	-36.59011459350587	973.5332031250005	731.2954711914065	-19.54721641540528	798.8988647460942	873.4809570312505	-87.19503021240237	791.9989624023442	826.521362304688	-34.33725738525392	712.1067504882815	910.7062377929692	-87.51497650146487	712.7954711914065	822.4074707031255	
309	3.08	322.278045654297	878.9153442382817	854.2407836914067	230.9248199462892	898.533081054688	678.2246093750002	142.598373413086	893.2029418945317	684.7429809570315	79.04561614990237	867.0706176757817	867.2086791992192	379.4414367675782	794.2160034179692	788.3458862304692	369.0531311035157	462.3674316406252	925.0032348632817	254.8848114013673	458.4176940917971	957.5133666992192	374.1181945800782	397.554870605469	925.6359863281255	336.2644348144532	402.540710449219	996.5637817382817	352.1365966796876	87.31667327880862	1019.279113769532	268.7434082031251	106.3445129394532	1050.085571289063	301.4002075195314	32.18532943725587	1001.985961914063	305.1454467773439	107.2146835327149	1167.69287109375	363.0381774902345	112.6304168701172	1161.016357421875	393.7307434082034	76.69411468505862	1121.359130859375	26.1775588989258	765.1911621093752	776.3916015625005	94.77187347412112	421.1291198730471	755.5174560546877	216.8316040039064	419.4552307128909	756.619812011719	95.59622192382815	356.6071166992189	725.8654785156252	153.8178253173829	344.548553466797	780.823852539063	160.4911193847657	68.52437591552737	610.9514770507815	248.8804626464845	84.15842437744143	645.030944824219	216.4682617187501	32.1873016357422	561.0415649414065	238.8593139648439	22.52231597900391	745.8182373046877	174.3724975585938	36.85634613037111	755.7881469726565	125.3931198120118	24.8733253479004	695.2250976562502	187.2289276123047	1368.247680664063	697.3731689453127	182.9797668457032	1132.0048828125	635.3891601562502	206.1271057128907	1139.669921875	865.030151367188	202.0441894531251	1300.686645507813	820.5778808593755	276.4089965820314	1171.5830078125	620.4837646484377	272.772430419922	1303.431884765625	642.396911621094	386.8082580566409	1295.655151367188	709.5198974609377	375.865447998047	1307.164428710938	750.357849121094	441.8247985839846	1020.912902832032	705.1685791015627	362.7642211914064	990.3672485351567	696.5932617187502	408.8501892089846	987.7390136718755	677.4693603515627	425.5158386230471	797.8576049804692	817.3952026367192	479.7123107910159	791.127319335938	758.6053466796877	439.1644592285159	718.9910278320315	851.3402709960942	480.9068298339846	712.3081665039065	758.1859130859377	68.26799011230472	1176.909790039063	639.4329833984377	93.81254577636722	1301.64404296875	662.818786621094	-0.02525863237679006	1297.248901367188	752.9003906250002	16.88912963867188	1302.05078125	798.287719726563	-62.00458145141604	997.9484252929692	766.575378417969	10.35572242736817	980.637329101563	732.6069946289065	-35.69013977050783	972.9057617187505	734.1557617187502	-18.20155715942384	798.7481079101567	877.266479492188	-85.87534332275393	791.620239257813	830.1242065429692	-32.83857345581056	712.2170410156252	914.662231445313	-86.02748107910159	712.4128417968752	826.3021850585942	
310	3.09	322.782196044922	878.2075195312505	857.4729614257817	231.7693176269532	898.0669555664067	681.2779541015627	143.416244506836	892.8628540039067	687.584899902344	79.3955001831055	866.715698242188	869.8828735351567	379.9065551757814	793.476196289063	791.6437377929692	368.8578186035157	461.8370666503909	928.163208007813	254.759979248047	458.2162170410159	960.7753295898442	373.8314208984376	396.9216918945315	929.1179809570317	336.0796203613282	402.420593261719	1000.041687011719	351.5868530273439	87.3254318237305	1025.050903320313	268.2325439453126	106.726905822754	1055.830444335938	300.7122497558595	32.20556640625001	1008.076965332032	304.6705017089845	108.0950241088868	1173.413818359375	362.6031799316407	113.2260437011719	1166.76123046875	393.1472778320315	76.9751892089844	1127.277709960938	26.41174888610841	764.9096679687502	778.6986694335942	95.01397705078128	420.9086608886721	757.0933227539065	217.1955566406251	419.1683044433596	758.1556396484377	95.78342437744143	356.4882812500001	727.2083740234377	154.0086975097657	344.2289123535157	782.1676635742192	160.4778900146485	68.81182861328128	611.1146240234377	248.8653411865236	84.304069519043	645.2253417968752	216.4283142089845	32.60591506958009	561.0806884765627	238.8824462890626	22.53137779235841	745.8040161132815	174.3538360595704	36.84670639038087	755.8066406250002	125.3825454711915	24.86603736877443	695.233581542969	188.2133331298829	1367.744995117188	700.1494140625002	184.0048980712891	1131.4755859375	638.240661621094	206.8174743652345	1139.233520507813	867.9617309570317	202.8695526123048	1300.208984375	823.3925170898442	277.4029846191407	1170.993286132813	623.4668579101565	273.7863159179689	1302.864624023438	645.2989501953127	387.7644958496096	1295.01318359375	712.5820312500002	376.7603759765626	1306.586669921875	753.4259033203127	442.5950317382815	1020.255187988282	708.422302246094	363.5311279296876	989.760620117188	699.7684326171877	409.633972167969	987.1096801757817	680.6785278320315	425.9157409667971	797.1737670898442	820.715209960938	480.2658691406252	790.4594116210942	761.9497680664065	439.5583801269534	718.3604736328127	854.6464843750005	481.4139099121096	711.6396484375002	761.5435791015627	69.2538757324219	1176.4404296875	642.1489257812502	94.81575012207034	1301.141357421875	665.5362548828127	0.871732890605927	1296.792236328125	755.5035400390627	17.73889160156251	1301.603881835938	800.9224243164067	-61.08354187011722	997.4191284179692	769.4042968750005	11.28589248657227	980.1176147460942	735.462829589844	-34.75131607055665	972.2795410156255	737.039978027344	-16.83334159851075	798.5827026367192	881.049926757813	-84.52510833740237	791.2268676757817	833.7177124023442	-31.30965614318849	712.2957763671877	918.5854492187505	-84.50516510009768	712.014587402344	830.1850585937505	
